<svg width="1920" height="100" viewBox="0 0 1920 100" fill="none" xmlns="http://www.w3.org/2000/svg">
<g clip-path="url(#clip0_1053_229)">
<path d="M-12.6172 49.9856C24.8308 43.6483 57.8849 31.6232 96.2104 31.1501C128.408 30.7526 159.644 31.6982 191.435 34.9869C281.41 44.2947 373.554 43.7071 464.201 43.7071C535.199 43.7071 605.258 17.413 676.624 25.5692C749.885 33.9419 823.956 37.0531 897.419 43.0095C941.542 46.587 987.714 46.8463 1032.06 46.8463C1046.17 46.8463 1061.79 48.6521 1075.66 45.4511C1098.96 40.0734 1118.42 31.3956 1142.98 31.1501C1178.2 30.7979 1213.45 31.1501 1248.67 31.1501C1297.38 31.1501 1340.53 51.199 1387.84 58.0082C1461.63 68.6299 1539.82 62.5426 1614.22 62.5426C1657.45 62.5426 1700.55 59.8715 1743.62 59.4034C1771.01 59.1057 1792.14 57.208 1817.92 51.7296C1849.08 45.1074 1880.61 43.6569 1911.75 37.4286" stroke="black" stroke-width="31" stroke-linecap="round"/>
</g>
<defs>
<clipPath id="clip0_1053_229">
<rect width="1920" height="100" fill="white"/>
</clipPath>
</defs>
</svg>
