<svg width="1920" height="2246" viewBox="0 0 1920 2246" fill="none" xmlns="http://www.w3.org/2000/svg">
<g clip-path="url(#clip0_57_2060)">
<rect width="1920" height="2246" fill="white"/>
<path d="M-2727 340.348C-1738 663.654 -737.241 16.9984 251.802 340.348C251.802 862.307 251.802 1384.27 251.803 1906.23C-737.241 1582.92 -1738 2229.57 -2727 1906.23C-2727 1384.27 -2727 862.307 -2727 340.348Z" fill="white"/>
<path d="M-2727 340.35C-1738 663.656 -737.241 17.0001 251.802 340.349C251.802 388.505 251.803 412.626 251.803 460.782C-737.241 137.476 -1738 784.088 -2727 460.782C-2727 412.627 -2727 388.505 -2727 340.35Z" fill="#E71731"/>
<path d="M-2727 581.257C-1738 904.564 -737.241 257.908 251.802 581.257C251.802 629.413 251.803 653.533 251.803 701.689C-737.241 378.383 -1738 1025 -2727 701.69C-2727 653.534 -2727 629.413 -2727 581.257Z" fill="#E71731"/>
<path d="M-2727 822.165C-1738 1145.47 -737.241 498.859 251.802 822.165C251.802 870.32 251.803 894.441 251.803 942.597C-737.241 619.291 -1738 1265.9 -2727 942.597C-2727 894.442 -2727 870.321 -2727 822.165Z" fill="#E71731"/>
<path d="M-2727 1063.07C-1738 1386.38 -737.241 739.765 251.802 1063.07C251.802 1111.23 251.803 1135.35 251.803 1183.5C-737.241 860.197 -1738 1506.81 -2727 1183.5C-2727 1135.35 -2727 1111.23 -2727 1063.07Z" fill="#E71731"/>
<path d="M-2727 1303.98C-1738 1627.28 -737.241 980.672 251.802 1303.98C251.802 1352.13 251.803 1376.26 251.803 1424.41C-737.241 1101.1 -1738 1747.72 -2727 1424.41C-2727 1376.26 -2727 1352.13 -2727 1303.98Z" fill="#E71731"/>
<path d="M-2727 1544.89C-1738 1868.19 -737.241 1221.58 251.802 1544.89C251.802 1593.08 251.803 1617.16 251.803 1665.36C-737.241 1342.01 -1738 1988.62 -2727 1665.36C-2727 1617.16 -2727 1593.09 -2727 1544.89Z" fill="#E71731"/>
<path d="M-2727 1785.79C-1738 2109.1 -737.241 1462.49 251.802 1785.79C251.802 1833.99 251.803 1858.07 251.803 1906.23C-737.241 1582.92 -1738 2229.57 -2727 1906.23C-2727 1858.07 -2727 1833.99 -2727 1785.79Z" fill="#E71731"/>
<path d="M1701 340.348C2690 663.654 3690.76 16.9984 4679.8 340.348C4679.8 862.307 4679.8 1384.27 4679.8 1906.23C3690.76 1582.92 2690 2229.57 1701 1906.23C1701 1384.27 1701 862.307 1701 340.348Z" fill="white"/>
<path d="M1701 340.35C2690 663.656 3690.76 17.0001 4679.8 340.349C4679.8 388.505 4679.8 412.626 4679.8 460.782C3690.76 137.476 2690 784.088 1701 460.782C1701 412.627 1701 388.505 1701 340.35Z" fill="#E71731"/>
<path d="M1701 581.257C2690 904.564 3690.76 257.908 4679.8 581.257C4679.8 629.413 4679.8 653.533 4679.8 701.689C3690.76 378.383 2690 1025 1701 701.69C1701 653.534 1701 629.413 1701 581.257Z" fill="#E71731"/>
<path d="M1701 822.165C2690 1145.47 3690.76 498.859 4679.8 822.165C4679.8 870.32 4679.8 894.441 4679.8 942.597C3690.76 619.291 2690 1265.9 1701 942.597C1701 894.442 1701 870.321 1701 822.165Z" fill="#E71731"/>
<path d="M1701 1063.07C2690 1386.38 3690.76 739.765 4679.8 1063.07C4679.8 1111.23 4679.8 1135.35 4679.8 1183.5C3690.76 860.197 2690 1506.81 1701 1183.5C1701 1135.35 1701 1111.23 1701 1063.07Z" fill="#E71731"/>
<path d="M1701 1303.98C2690 1627.28 3690.76 980.672 4679.8 1303.98C4679.8 1352.13 4679.8 1376.26 4679.8 1424.41C3690.76 1101.1 2690 1747.72 1701 1424.41C1701 1376.26 1701 1352.13 1701 1303.98Z" fill="#E71731"/>
<path d="M1701 1544.89C2690 1868.19 3690.76 1221.58 4679.8 1544.89C4679.8 1593.08 4679.8 1617.16 4679.8 1665.36C3690.76 1342.01 2690 1988.62 1701 1665.36C1701 1617.16 1701 1593.09 1701 1544.89Z" fill="#E71731"/>
<path d="M1701 1785.79C2690 2109.1 3690.76 1462.49 4679.8 1785.79C4679.8 1833.99 4679.8 1858.07 4679.8 1906.23C3690.76 1582.92 2690 2229.57 1701 1906.23C1701 1858.07 1701 1833.99 1701 1785.79Z" fill="#E71731"/>
<path d="M1701 340.349C2091.93 468.406 2489.41 449.712 2891.11 390.142C2891.11 671.237 2891.11 952.288 2891.11 1233.34C2489.41 1292.91 2091.93 1311.6 1701 1183.5C1701 902.453 1701 621.401 1701 340.349Z" fill="#304F7D"/>
<path d="M1756.9 427.099C1768.23 438.858 1773.92 444.673 1785.24 456.173C1780.94 468.277 1778.74 474.307 1774.43 486.324C1785.76 481.457 1791.45 478.959 1802.78 473.876C1814.1 485.291 1819.79 490.933 1831.12 502.132C1826.81 487.66 1824.61 480.423 1820.31 465.951C1831.63 460.739 1837.32 458.068 1848.65 452.641C1834.65 449.152 1827.63 447.343 1813.63 443.553C1809.28 429.037 1807.13 421.758 1802.78 407.242C1798.47 419.346 1796.27 425.419 1791.96 437.523C1777.92 433.517 1770.94 431.449 1756.9 427.099Z" fill="white"/>
<path d="M1855.58 538.914C1866.91 549.941 1872.55 555.369 1883.92 566.18C1879.57 578.542 1877.42 584.701 1873.07 597.02C1884.39 591.421 1890.08 588.578 1901.41 582.806C1912.78 593.488 1918.42 598.786 1929.79 609.296C1925.44 595.125 1923.29 588.018 1918.94 573.761C1930.27 567.86 1935.95 564.888 1947.28 558.771C1933.28 556.144 1926.26 554.722 1912.26 551.793C1907.91 537.536 1905.76 530.429 1901.41 516.172C1897.1 528.534 1894.95 534.736 1890.6 547.098C1876.6 543.997 1869.58 542.36 1855.58 538.914Z" fill="white"/>
<path d="M1756.9 596.247C1768.23 607.963 1773.92 613.778 1785.24 625.321C1780.94 637.382 1778.74 643.412 1774.43 655.472C1785.76 650.605 1791.45 648.107 1802.78 643.024C1814.1 654.395 1819.79 660.038 1831.12 671.237C1826.81 656.764 1824.61 649.528 1820.31 635.055C1831.63 629.844 1837.32 627.173 1848.65 621.789C1834.65 618.3 1827.63 616.448 1813.63 612.657C1809.28 598.142 1807.13 590.906 1802.78 576.347C1798.47 588.494 1796.27 594.524 1791.96 606.627C1777.92 602.621 1770.94 600.554 1756.9 596.247Z" fill="white"/>
<path d="M1858.01 708.925C1869.34 719.908 1875.03 725.336 1886.35 736.147C1882.05 748.509 1879.85 754.668 1875.54 766.987C1886.87 761.388 1892.56 758.545 1903.88 752.73C1915.21 763.412 1920.9 768.71 1932.23 779.177C1927.92 765.006 1925.72 757.899 1921.41 743.685C1932.74 737.741 1938.43 734.726 1949.76 728.652C1935.72 725.982 1928.74 724.604 1914.7 721.675C1910.39 707.461 1908.23 700.353 1903.88 686.096C1899.53 698.501 1897.38 704.661 1893.07 717.022C1879.03 713.921 1872.01 712.328 1858.01 708.925Z" fill="white"/>
<path d="M1759.91 765.826C1771.24 777.542 1776.93 783.356 1788.26 794.857C1783.91 806.96 1781.75 812.991 1777.4 825.051C1788.77 820.141 1794.42 817.642 1805.79 812.517C1817.12 823.888 1822.8 829.531 1834.13 840.687C1829.78 826.257 1827.62 819.021 1823.27 804.548C1834.65 799.293 1840.29 796.623 1851.66 791.195C1837.62 787.75 1830.6 785.94 1816.6 782.15C1812.25 767.678 1810.09 760.398 1805.79 745.882C1801.44 758.029 1799.28 764.06 1794.93 776.163C1780.93 772.2 1773.91 770.133 1759.91 765.826Z" fill="white"/>
<path d="M1761.79 932.862C1773.11 944.534 1778.8 950.349 1790.13 961.85C1785.78 973.91 1783.62 979.983 1779.27 992.001C1790.64 987.09 1796.29 984.592 1807.66 979.467C1818.99 990.838 1824.63 996.48 1836 1007.64C1831.65 993.164 1829.5 985.927 1825.15 971.455C1836.52 966.243 1842.16 963.529 1853.53 958.102C1839.49 954.656 1832.47 952.848 1818.47 949.1C1814.12 934.585 1811.97 927.348 1807.66 912.833C1803.31 924.979 1801.15 931.009 1796.8 943.156C1782.81 939.193 1775.78 937.126 1761.79 932.862Z" fill="white"/>
<path d="M1759.35 1100.5C1770.68 1112.22 1776.32 1118.03 1787.69 1129.53C1783.34 1141.64 1781.19 1147.67 1776.84 1159.69C1788.21 1154.82 1793.85 1152.32 1805.22 1147.24C1816.55 1158.61 1822.2 1164.21 1833.57 1175.41C1829.22 1160.93 1827.06 1153.7 1822.71 1139.23C1834.08 1134.01 1839.73 1131.34 1851.05 1125.92C1837.06 1122.43 1830.03 1120.62 1816.04 1116.83C1811.69 1102.35 1809.53 1095.08 1805.22 1080.56C1800.87 1092.71 1798.72 1098.74 1794.37 1110.84C1780.37 1106.88 1773.35 1104.81 1759.35 1100.5Z" fill="white"/>
<path d="M1858.59 875.274C1869.92 886.301 1875.56 891.728 1886.93 902.497C1882.58 914.859 1880.43 921.061 1876.08 933.38C1887.45 927.738 1893.09 924.895 1904.46 919.08C1915.79 929.762 1921.43 935.06 1932.8 945.526C1928.45 931.355 1926.3 924.249 1921.95 910.034C1933.32 904.09 1938.96 901.075 1950.29 894.959C1936.29 892.374 1929.27 890.953 1915.27 888.067C1910.92 873.81 1908.77 866.703 1904.46 852.446C1900.11 864.851 1897.96 871.053 1893.61 883.415C1879.61 880.314 1872.59 878.677 1858.59 875.274Z" fill="white"/>
<path d="M1858.01 1043.3C1869.34 1054.29 1875.03 1059.71 1886.35 1070.52C1882.05 1082.89 1879.85 1089.05 1875.54 1101.37C1886.87 1095.77 1892.56 1092.92 1903.88 1087.11C1915.21 1097.79 1920.9 1103.09 1932.23 1113.55C1927.92 1099.38 1925.72 1092.28 1921.41 1078.06C1932.74 1072.12 1938.43 1069.1 1949.76 1062.99C1935.72 1060.36 1928.74 1058.98 1914.7 1056.05C1910.39 1041.84 1908.23 1034.73 1903.88 1020.47C1899.53 1032.84 1897.38 1039.04 1893.07 1051.4C1879.03 1048.3 1872.01 1046.71 1858.01 1043.3Z" fill="white"/>
</g>
<defs>
<clipPath id="clip0_57_2060">
<rect width="1920" height="2246" fill="white"/>
</clipPath>
</defs>
</svg>
